<?xml version="1.0" standalone="no"?>
<!DOCTYPE svg PUBLIC "-//W3C//DTD SVG 20010904//EN"
 "http://www.w3.org/TR/2001/REC-SVG-20010904/DTD/svg10.dtd">
<svg version="1.0" xmlns="http://www.w3.org/2000/svg"
 width="32.000000pt" height="32.000000pt" viewBox="0 0 32.000000 32.000000"
 preserveAspectRatio="xMidYMid meet">

<g transform="translate(0.000000,32.000000) scale(0.100000,-0.100000)"
fill="#000000" stroke="none">
<path d="M90 298 c-33 -17 -51 -35 -67 -68 -29 -56 -29 -84 -1 -140 31 -61 97
-95 164 -85 63 9 120 66 129 129 10 67 -24 133 -85 164 -24 12 -56 22 -70 22
-14 0 -46 -10 -70 -22z m100 -69 c28 -54 23 -91 -13 -103 -37 -14 -61 2 -65
43 -3 31 30 101 49 101 5 0 18 -18 29 -41z m-90 -156 c0 -7 -7 -13 -15 -13 -8
0 -15 6 -15 13 0 8 7 14 15 14 8 0 15 -6 15 -14z m17 -5 c-3 -8 -6 -5 -6 6 -1
11 2 17 5 13 3 -3 4 -12 1 -19z m33 7 c0 -8 -4 -15 -10 -15 -5 0 -10 7 -10 15
0 8 5 15 10 15 6 0 10 -7 10 -15z m30 0 c0 -8 -4 -15 -10 -15 -5 0 -10 7 -10
15 0 8 5 15 10 15 6 0 10 -7 10 -15z m30 0 c0 -8 -4 -15 -10 -15 -5 0 -7 7 -4
15 4 8 8 15 10 15 2 0 4 -7 4 -15z m30 0 c0 -8 -4 -15 -10 -15 -5 0 -10 7 -10
15 0 8 5 15 10 15 6 0 10 -7 10 -15z"/>
<path d="M137 225 c-18 -39 -21 -55 -9 -55 13 1 43 73 34 82 -4 4 -16 -7 -25
-27z"/>
<path d="M161 201 c-7 -17 -10 -38 -7 -47 6 -15 4 -15 -10 -3 -15 12 -17 12
-12 -1 2 -8 11 -15 19 -15 13 0 15 5 18 48 0 10 6 15 11 12 6 -3 7 -18 4 -32
-5 -18 -3 -24 5 -19 15 10 14 48 -2 70 -13 17 -14 16 -26 -13z"/>
</g>
</svg>
