<svg version="1.1" id="Layer_1" xmlns="http://www.w3.org/2000/svg" xmlns:xlink="http://www.w3.org/1999/xlink" x="0px" y="0px"
	 width="100%" viewBox="0 0 288 256" enable-background="new 0 0 288 256" xml:space="preserve">
<path fill="#000000" opacity="1.000000" stroke="none" 
	d="
M77.536819,1.000000 
	C81.878586,4.128364 84.364510,8.693543 88.824196,11.268410 
	C90.661194,12.329025 92.291420,12.989355 94.435089,12.404600 
	C100.955132,10.626047 104.067421,11.726024 107.851852,16.869659 
	C112.683105,23.436083 119.323524,28.235065 124.958328,34.021076 
	C128.012299,37.157005 131.009720,40.473442 134.174515,43.544212 
	C145.559113,54.590599 156.616043,65.976593 168.070755,76.972115 
	C178.710663,87.185493 188.810959,97.959412 199.208237,108.427528 
	C213.729889,123.048134 228.352264,137.568878 242.845596,152.217392 
	C254.430786,163.926651 265.907654,175.743423 277.390503,187.553391 
	C281.283417,191.557205 281.009796,194.319519 276.230713,197.701050 
	C263.590790,206.644714 250.906128,215.526062 238.179916,224.346588 
	C228.623856,230.969894 220.766266,239.844681 210.319061,245.277695 
	C205.743439,247.657196 201.228165,250.151779 197.203140,253.407990 
	C193.679642,256.258514 190.923569,255.245132 188.222519,252.095764 
	C184.537384,247.798965 180.692871,243.636978 176.860031,239.469299 
	C173.361389,235.664963 170.924866,236.024948 168.594803,240.636017 
	C168.146240,241.523697 167.873138,242.498962 167.500443,243.426315 
	C166.943710,244.811600 166.503738,246.556549 164.460220,245.819809 
	C162.923615,245.265839 162.171616,243.924255 162.405731,242.221130 
	C162.630203,240.588074 163.037216,238.957474 162.342880,237.580276 
	C161.046371,236.652267 160.239944,237.377136 159.366394,237.823639 
	C155.769196,239.662292 154.651047,237.820801 155.142426,234.621216 
	C155.711533,230.915573 156.555496,227.716431 150.663544,229.019821 
	C147.832306,229.646133 147.767075,227.034561 147.762238,224.957428 
	C147.757797,223.056305 147.772263,220.931564 145.025986,221.283142 
	C140.094131,221.914536 139.697266,219.298691 140.549042,215.525940 
	C140.805206,214.391357 140.907578,213.199402 139.700592,211.973770 
	C134.739395,213.759125 131.768173,212.923843 133.453033,206.470322 
	C133.844650,204.970337 132.768188,203.164642 130.827713,203.902710 
	C126.028786,205.727997 125.500771,203.595993 126.424225,199.662994 
	C126.742126,198.309036 126.550537,197.009445 125.146675,195.802124 
	C115.804718,199.839508 120.150879,191.001328 118.217850,187.965256 
	C112.671440,188.655350 112.671440,188.655350 110.713020,180.750229 
	C103.544899,182.680038 105.110931,176.567093 104.084404,172.548080 
	C95.875618,175.393066 98.600800,168.307617 96.956673,164.794601 
	C92.439163,166.418533 89.260902,166.061920 90.123291,160.206161 
	C90.244843,159.380814 89.502670,158.453232 88.666321,158.397690 
	C84.887848,158.146820 84.909393,154.840103 83.226082,152.759720 
	C80.541908,149.442352 77.227661,146.721008 74.674797,142.975266 
	C73.633949,141.448059 69.945137,140.891357 69.459358,137.473068 
	C69.278793,136.202515 67.678238,136.182343 66.566994,135.879135 
	C65.239037,135.516800 63.650200,134.951523 63.598728,133.546875 
	C63.467945,129.978195 59.783447,129.353210 58.784718,127.719467 
	C56.386211,123.795929 53.456795,120.739655 50.273510,117.653610 
	C49.605301,117.005829 49.820793,115.446503 49.655373,114.463486 
	C43.353550,112.167801 39.924404,107.335449 36.444984,102.149834 
	C34.216362,98.828377 30.506544,96.493141 28.061930,93.103668 
	C24.114895,87.631065 17.286469,84.472061 17.574158,75.690346 
	C17.738380,70.677406 14.544369,65.526093 14.388549,59.911579 
	C14.279768,55.991989 15.180779,53.765881 18.563366,51.871964 
	C25.241743,48.132740 25.492180,46.384373 20.758024,40.382702 
	C18.904200,38.032536 16.964499,35.702648 14.774628,33.676125 
	C11.480379,30.627598 11.866160,28.574383 15.844966,26.641964 
	C28.875101,20.313519 41.855412,13.882339 54.844627,7.469879 
	C58.272305,5.777717 61.769089,4.186729 64.822937,1.286422 
	C69.024544,1.000000 73.049088,1.000000 77.536819,1.000000 
M191.737534,227.767181 
	C193.472305,229.226654 194.529877,231.513870 196.950165,232.157990 
	C199.736664,227.515350 195.568939,222.457031 188.801102,222.214645 
	C188.162094,224.613770 190.238159,225.691940 191.737534,227.767181 
z"/>
</svg>